<svg width="213" height="81" viewBox="0 0 213 81" fill="none" xmlns="http://www.w3.org/2000/svg">
<g clip-path="url(#clip0_9_5)">
<g filter="url(#filter0_d_9_5)">
<path d="M12.8389 34.5137V21.7305C12.8389 20.7233 12.7559 20.0648 12.5898 19.7549C12.4238 19.4561 12.0807 19.2513 11.5605 19.1406L10.5811 18.9414V18.2441H17.5537C19.2803 18.2441 20.625 18.6536 21.5879 19.4727C22.5508 20.2917 23.0378 21.3874 23.0488 22.7598C23.0488 24.1322 22.5065 25.2943 21.4219 26.2461C20.9349 26.6777 20.4092 26.9987 19.8447 27.209C21.361 27.3529 22.5065 27.9173 23.2812 28.9023C24.056 29.8874 24.4434 31.1214 24.4434 32.6045C24.4434 34.0986 23.7738 35.3714 22.4346 36.4229C21.0954 37.4743 19.153 38 16.6074 38H10.5811V37.3027L11.5439 37.1035C12.1527 36.9818 12.5179 36.7383 12.6396 36.373C12.7725 36.0078 12.8389 35.388 12.8389 34.5137ZM16.4746 27.7402H15.0635V36.9707C17.7087 36.9707 19.5182 36.5723 20.4922 35.7754C21.4661 34.9785 21.9531 33.7887 21.9531 32.2061C21.9531 29.7048 20.7633 28.2604 18.3838 27.873C17.8525 27.7845 17.2161 27.7402 16.4746 27.7402ZM16.6904 19.2734H15.0635V26.7109H16.5244C18.4723 26.7109 19.7285 25.9528 20.293 24.4365C20.4701 23.9495 20.5586 23.4294 20.5586 22.876C20.5365 20.4854 19.2471 19.2845 16.6904 19.2734ZM26.9834 28.6035C26.9834 25.6816 27.7913 23.2191 29.4072 21.2158C31.0342 19.2015 33.1758 18.1943 35.832 18.1943C38.6764 18.1943 40.9453 19.1351 42.6387 21.0166C44.3431 22.887 45.2008 25.3109 45.2119 28.2881C45.2119 30.9333 44.4261 33.2907 42.8545 35.3604C41.2939 37.43 39.0306 38.4648 36.0645 38.4648C33.3529 38.4648 31.1615 37.5352 29.4902 35.6758C27.819 33.8053 26.9834 31.4479 26.9834 28.6035ZM29.4736 27.9561C29.4736 31.1325 30.1322 33.4733 31.4492 34.9785C32.7663 36.4727 34.3711 37.2253 36.2637 37.2363C38.4993 37.2363 40.1318 36.4062 41.1611 34.7461C42.1904 33.0749 42.7051 31.0218 42.7051 28.5869C42.7051 25.4548 42.0299 23.1361 40.6797 21.6309C39.3294 20.1257 37.6527 19.3675 35.6494 19.3564H35.6328C33.7734 19.3564 32.2793 20.1533 31.1504 21.7471C30.0326 23.3408 29.4736 25.4105 29.4736 27.9561ZM47.1709 28.6035C47.1709 25.6816 47.9788 23.2191 49.5947 21.2158C51.2217 19.2015 53.3633 18.1943 56.0195 18.1943C58.8639 18.1943 61.1328 19.1351 62.8262 21.0166C64.5306 22.887 65.3883 25.3109 65.3994 28.2881C65.3994 30.9333 64.6136 33.2907 63.042 35.3604C61.4814 37.43 59.2181 38.4648 56.252 38.4648C53.5404 38.4648 51.349 37.5352 49.6777 35.6758C48.0065 33.8053 47.1709 31.4479 47.1709 28.6035ZM49.6611 27.9561C49.6611 31.1325 50.3197 33.4733 51.6367 34.9785C52.9538 36.4727 54.5586 37.2253 56.4512 37.2363C58.6868 37.2363 60.3193 36.4062 61.3486 34.7461C62.3779 33.0749 62.8926 31.0218 62.8926 28.5869C62.8926 25.4548 62.2174 23.1361 60.8672 21.6309C59.5169 20.1257 57.8402 19.3675 55.8369 19.3564H55.8203C53.9609 19.3564 52.4668 20.1533 51.3379 21.7471C50.2201 23.3408 49.6611 25.4105 49.6611 27.9561ZM66.8604 19.4395C66.8604 18.6536 67.4193 18.2552 68.5371 18.2441H77.8838V18.9414L76.9043 19.1406C76.2956 19.2624 75.9248 19.5059 75.792 19.8711C75.6702 20.2363 75.6094 20.8561 75.6094 21.7305V27.7402L84.1592 20.1699C84.5244 19.849 84.6185 19.5999 84.4414 19.4229C84.2643 19.2458 84.0319 19.1351 83.7441 19.0908L82.748 18.9414V18.2441H89.1895V18.9248L88.4258 19.0576C87.5736 19.2015 86.7712 19.5944 86.0186 20.2363L78.2656 27.0928L87.2637 36.1904C87.9056 36.8434 88.6084 37.2197 89.3721 37.3193V38H82.2666V37.3027L83.3955 37.0537C83.8604 36.9209 84.1038 36.8047 84.126 36.7051C84.1149 36.5612 83.9157 36.29 83.5283 35.8916L76.5557 28.5869L75.6094 29.417V34.5303C75.6094 35.5264 75.6979 36.1738 75.875 36.4727C76.0521 36.7715 76.4007 36.9818 76.9209 37.1035L77.8838 37.3193V38H71.4424V37.2695L72.5713 37.0205C72.9697 36.932 73.2021 36.8102 73.2686 36.6553C73.346 36.5003 73.3848 36.1019 73.3848 35.46V23.4902C73.3848 21.985 73.2686 20.8949 73.0361 20.2197C72.8037 19.5335 72.3167 19.1849 71.5752 19.1738C71.2432 19.1738 70.806 19.3896 70.2637 19.8213C69.5221 20.4189 68.8802 20.7233 68.3379 20.7344C67.7956 20.7344 67.4137 20.5905 67.1924 20.3027C66.971 20.0039 66.8604 19.7161 66.8604 19.4395Z" fill="white"/>
<path d="M98.2041 43.6279C99.2113 43.6279 99.7148 42.4935 99.7148 40.2246V20.8174C99.7148 20.0869 99.665 19.6553 99.5654 19.5225C99.4658 19.4007 99.2445 19.3011 98.9014 19.2236L97.7725 18.9746H94.2031C93.1628 18.9746 92.4212 19.5335 91.9785 20.6514C91.7793 21.1494 91.6797 21.6475 91.6797 22.1455C91.6797 24.4144 92.1833 25.5488 93.1904 25.5488C93.3675 25.5488 93.6497 25.3828 94.0371 25.0508C94.6569 24.5859 95.1771 24.3369 95.5977 24.3037C96.3392 24.3037 96.7321 24.6413 96.7764 25.3164C96.8096 25.7702 96.5993 26.1243 96.1455 26.3789C95.9131 26.5007 95.6696 26.5615 95.415 26.5615C94.1423 26.5615 93.2292 26.4674 92.6758 26.2793C90.5397 25.5599 89.4661 24.1266 89.4551 21.9795C89.4551 20.5075 90.1523 19.445 91.5469 18.792C92.3327 18.4268 93.2181 18.2441 94.2031 18.2441H104.23V18.9414L103.268 19.1406C102.659 19.2624 102.288 19.5059 102.155 19.8711C102.022 20.2363 101.956 20.8561 101.956 21.7305V27.1426H113.876V21.7305C113.876 20.7233 113.793 20.0648 113.627 19.7549C113.461 19.445 113.118 19.2402 112.598 19.1406L111.618 18.9414V18.2441H118.06V18.9746L116.931 19.2236C116.532 19.3122 116.3 19.4339 116.233 19.5889C116.156 19.7549 116.117 20.1644 116.117 20.8174V35.46C116.117 36.1683 116.167 36.5889 116.267 36.7217C116.377 36.8434 116.599 36.943 116.931 37.0205L118.06 37.2695V38H111.618V37.3027L112.581 37.1035C113.179 36.9818 113.544 36.7383 113.677 36.373C113.81 36.0078 113.876 35.388 113.876 34.5137V28.1719H101.956V39.2451C101.823 41.1156 101.331 42.4769 100.479 43.3291C99.6263 44.1924 98.2594 44.624 96.3779 44.624C95.6917 44.624 95.2269 44.5023 94.9834 44.2588C94.751 44.0264 94.6348 43.7331 94.6348 43.3789C94.679 42.7148 95.0664 42.3828 95.7969 42.3828C96.2617 42.3828 96.71 42.582 97.1416 42.9805C97.5843 43.39 97.9385 43.6058 98.2041 43.6279ZM124.036 17.9785C125.397 17.9785 126.449 18.2054 127.19 18.6592C128.22 19.3122 129.044 20.5352 129.664 22.3281C131.9 28.847 133.316 32.8923 133.914 34.4639C134.534 36.1019 135.292 37.0094 136.188 37.1865L136.936 37.3193V38H130.096V37.3027L131.374 37.0205C131.894 36.8877 132.16 36.5999 132.171 36.1572C132.171 35.8916 132.093 35.5319 131.938 35.0781L130.71 31.3926H123.986C123.046 34.3698 122.564 35.9525 122.542 36.1406C122.542 36.6276 122.929 36.9596 123.704 37.1367L124.684 37.3193V38H118.425V37.3027L119.354 37.1367C120.174 36.9818 120.887 36.0244 121.496 34.2646L125.082 23.8555C125.735 21.9408 126.078 20.7897 126.111 20.4023C126.156 20.015 126.028 19.8213 125.729 19.8213C125.375 19.8213 125.038 19.8822 124.717 20.0039C124.407 20.1257 124.208 20.1865 124.119 20.1865C123.588 20.1865 123.228 19.943 123.04 19.4561C122.985 19.29 122.957 19.1185 122.957 18.9414C123.035 18.3327 123.394 18.0117 124.036 17.9785ZM127.39 21.166L124.335 30.3633H130.395L127.39 21.166ZM143.493 18.2441C144.6 18.2441 145.159 18.6315 145.17 19.4062C145.17 20.0039 144.871 20.4079 144.273 20.6182C144.096 20.6735 143.919 20.7012 143.742 20.7012C143.178 20.7012 142.624 20.4743 142.082 20.0205C141.551 19.5557 141.208 19.2956 141.053 19.2402C140.898 19.1738 140.759 19.1406 140.638 19.1406C139.73 19.1406 139.708 20.2861 140.571 22.5771L145.286 35.3271L151.097 20.3359C151.318 19.7826 151.246 19.4229 150.881 19.2568C150.527 19.0908 149.84 19.0078 148.822 19.0078V18.2441H155.197L155.214 19.0078C154.085 19.0521 153.338 19.3011 152.973 19.7549C152.84 19.9209 152.707 20.181 152.574 20.5352L145.535 38.0332H143.991L137.998 22.6602C137.4 21.1328 136.924 20.1644 136.57 19.7549C136.227 19.3454 135.707 19.113 135.01 19.0576C134.777 19.0355 134.484 19.0244 134.13 19.0244V18.2441H143.493ZM166.221 36.9707C167.117 36.9707 167.654 36.2956 167.831 34.9453H168.495V38H155.28V37.3027L156.243 37.1035C156.841 36.9818 157.206 36.7383 157.339 36.373C157.472 36.0078 157.538 35.388 157.538 34.5137V21.7305C157.538 20.7233 157.455 20.0703 157.289 19.7715C157.123 19.4616 156.78 19.2513 156.26 19.1406L155.28 18.9414V18.2441H167.532V21.2988H166.868C166.68 19.9707 166.143 19.2956 165.258 19.2734H159.763V27.7236H163.598C164.018 27.7236 164.267 27.6572 164.345 27.5244C164.433 27.3916 164.527 27.1149 164.627 26.6943L164.793 25.9639H165.49V30.4795H164.793C164.616 29.5719 164.45 29.0573 164.295 28.9355C164.151 28.8138 163.913 28.7529 163.581 28.7529H159.763V36.9707H166.221ZM170.687 18.9414C170.687 18.2995 171.09 17.9785 171.898 17.9785C174.057 17.9785 175.59 18.5098 176.497 19.5723L187.188 34.165V21.7471C187.188 20.7399 187.1 20.0869 186.923 19.7881C186.746 19.4893 186.397 19.2845 185.877 19.1738L184.914 18.9746V18.2441H190.542V19.0078L189.413 19.2402C189.026 19.3177 188.793 19.4395 188.716 19.6055C188.638 19.7715 188.6 20.1865 188.6 20.8506V38.4814H187.919L176.198 22.6768L176.182 35.4766C176.182 36.207 176.243 36.6442 176.364 36.7881C176.497 36.9209 176.735 37.0205 177.078 37.0869L178.207 37.3193V38H172.612V37.3525L173.575 37.1533C174.162 37.0316 174.51 36.8047 174.621 36.4727C174.743 36.1406 174.804 35.5042 174.804 34.5635V22.9756C174.793 20.6735 174.477 19.5114 173.857 19.4893C173.57 19.4893 173.182 19.6055 172.695 19.8379C172.208 20.0703 171.926 20.1865 171.849 20.1865C171.317 20.1865 170.958 19.943 170.77 19.4561C170.714 19.29 170.687 19.1185 170.687 18.9414Z" fill="#5572D2"/>
</g>
<path d="M145.994 64.1658C145.51 64.1658 145.065 64.1237 144.66 64.0395C144.26 63.9553 143.905 63.8527 143.595 63.7316C143.289 63.6053 143.034 63.4817 142.829 63.3606L142.726 62.366C143.121 62.6186 143.589 62.837 144.131 63.0212C144.679 63.2054 145.281 63.2975 145.939 63.2975C146.755 63.2975 147.365 63.1422 147.77 62.8317C148.181 62.516 148.386 62.0503 148.386 61.4346V61.2846C148.386 60.8794 148.307 60.5479 148.149 60.29C147.991 60.0321 147.728 59.819 147.36 59.6506C146.991 59.477 146.486 59.3217 145.844 59.1849C145.076 59.0112 144.465 58.806 144.013 58.5692C143.56 58.3324 143.237 58.0351 143.042 57.6772C142.847 57.3194 142.75 56.8773 142.75 56.3511V56.2879C142.75 55.4775 143.01 54.8513 143.531 54.4093C144.058 53.9672 144.855 53.7462 145.923 53.7462C146.639 53.7462 147.247 53.8251 147.747 53.983C148.252 54.1409 148.657 54.3119 148.962 54.4961L149.057 55.4196C148.694 55.1934 148.265 54.9986 147.77 54.8355C147.276 54.6724 146.702 54.5908 146.049 54.5908C145.502 54.5908 145.06 54.6592 144.723 54.796C144.387 54.9329 144.139 55.1302 143.981 55.3881C143.829 55.6459 143.752 55.9538 143.752 56.3116V56.3511C143.752 56.7142 143.826 57.022 143.973 57.2746C144.121 57.5272 144.379 57.743 144.747 57.9219C145.121 58.1008 145.647 58.2692 146.326 58.4271C147.083 58.5955 147.683 58.7928 148.125 59.0191C148.567 59.2401 148.886 59.5296 149.081 59.8874C149.281 60.2453 149.381 60.7084 149.381 61.2767V61.4504C149.381 62.3397 149.096 63.0159 148.528 63.479C147.96 63.9369 147.115 64.1658 145.994 64.1658ZM153.465 63.0133H154.049L153.552 63.2343L156.015 56.3037H157.002L153.252 66.7154H152.273L153.489 63.3211L153.891 63.6843H152.778L150.15 56.3037H151.152L153.465 63.0133ZM160.773 64.1658C160.153 64.1658 159.616 64.0947 159.163 63.9526C158.711 63.8106 158.334 63.6579 158.034 63.4948L157.94 62.587C158.319 62.7975 158.734 62.9765 159.187 63.1238C159.639 63.2712 160.155 63.3448 160.734 63.3448C161.371 63.3448 161.858 63.237 162.194 63.0212C162.531 62.8002 162.7 62.4739 162.7 62.0424V61.9319C162.7 61.653 162.639 61.424 162.518 61.2451C162.397 61.0609 162.181 60.9031 161.871 60.7715C161.56 60.6347 161.121 60.5084 160.552 60.3926C159.905 60.2558 159.395 60.0979 159.021 59.919C158.647 59.7348 158.382 59.5033 158.224 59.2244C158.066 58.9455 157.987 58.6008 157.987 58.1903V58.1114C157.987 57.4746 158.211 56.9878 158.658 56.651C159.111 56.309 159.787 56.138 160.687 56.138C161.287 56.138 161.805 56.209 162.242 56.3511C162.678 56.4932 163.034 56.6537 163.307 56.8326L163.402 57.6614C163.065 57.4562 162.681 57.2852 162.25 57.1483C161.818 57.0063 161.323 56.9352 160.766 56.9352C160.339 56.9352 159.989 56.9826 159.716 57.0773C159.447 57.172 159.247 57.3088 159.116 57.4878C158.99 57.6667 158.926 57.8772 158.926 58.1193V58.1903C158.926 58.4639 158.987 58.6929 159.108 58.877C159.229 59.056 159.442 59.2086 159.747 59.3349C160.053 59.4612 160.474 59.5769 161.01 59.6822C161.673 59.819 162.197 59.9769 162.581 60.1558C162.965 60.3347 163.239 60.5636 163.402 60.8426C163.565 61.1215 163.647 61.4767 163.647 61.9082V62.0503C163.647 62.7449 163.402 63.2712 162.913 63.629C162.423 63.9868 161.71 64.1658 160.773 64.1658ZM168.014 64.15C167.451 64.15 166.993 64.0658 166.64 63.8974C166.293 63.729 166.038 63.4711 165.875 63.1238C165.717 62.7765 165.638 62.345 165.638 61.8293V56.8089H166.585V61.7187C166.585 62.2608 166.709 62.6633 166.956 62.9265C167.209 63.1843 167.632 63.3133 168.227 63.3133C168.543 63.3133 168.848 63.2764 169.143 63.2027C169.443 63.1291 169.724 63.0238 169.987 62.887L169.9 63.7237C169.653 63.8553 169.364 63.9579 169.032 64.0316C168.701 64.1105 168.361 64.15 168.014 64.15ZM169.814 57.2194H164.32V56.4458H169.9L169.814 57.2194ZM166.561 56.5563H165.646L165.638 54.3461L166.609 54.1961L166.561 56.5563ZM174.366 64.1658C173.256 64.1658 172.414 63.8869 171.84 63.329C171.267 62.7712 170.98 61.9766 170.98 60.9452V59.4454C170.98 58.3719 171.246 57.5483 171.777 56.9747C172.314 56.4011 173.093 56.1143 174.114 56.1143C174.798 56.1143 175.371 56.2432 175.835 56.5011C176.298 56.7589 176.645 57.1299 176.876 57.6141C177.113 58.0982 177.232 58.6797 177.232 59.3586V59.6348C177.232 59.7874 177.226 59.94 177.216 60.0927C177.205 60.2453 177.192 60.3979 177.176 60.5505H176.292C176.303 60.3189 176.308 60.1006 176.308 59.8953C176.308 59.6848 176.308 59.4927 176.308 59.3191C176.308 58.8034 176.224 58.3666 176.056 58.0087C175.892 57.6456 175.648 57.3694 175.321 57.1799C175 56.9905 174.598 56.8957 174.114 56.8957C173.393 56.8957 172.848 57.1089 172.48 57.5351C172.111 57.9561 171.927 58.5666 171.927 59.3664V60.1163L171.935 60.2426V61.0399C171.935 61.3925 171.985 61.7109 172.085 61.995C172.19 62.2792 172.348 62.5239 172.559 62.7291C172.774 62.9291 173.043 63.0817 173.364 63.187C173.69 63.2922 174.069 63.3448 174.5 63.3448C175 63.3448 175.464 63.2764 175.89 63.1396C176.321 62.9975 176.724 62.8028 177.097 62.5555L177.003 63.4159C176.676 63.6422 176.29 63.8237 175.842 63.9605C175.395 64.0974 174.903 64.1658 174.366 64.1658ZM176.963 60.5505H171.477V59.8164H176.963V60.5505ZM189.667 64H188.712V59.1533C188.712 58.6955 188.654 58.3034 188.539 57.9772C188.428 57.6456 188.244 57.393 187.986 57.2194C187.728 57.0405 187.381 56.951 186.944 56.951C186.544 56.951 186.192 57.0352 185.886 57.2036C185.586 57.3667 185.344 57.593 185.16 57.8824C184.976 58.1719 184.85 58.4981 184.781 58.8613L184.6 58.1429H184.734C184.802 57.7904 184.939 57.4641 185.144 57.1641C185.355 56.8589 185.636 56.6142 185.989 56.43C186.342 56.2406 186.77 56.1459 187.276 56.1459C187.849 56.1459 188.312 56.2616 188.665 56.4932C189.018 56.7195 189.273 57.051 189.431 57.4878C189.589 57.9193 189.667 58.4403 189.667 59.0507V64ZM180.014 64H179.058V56.3037H180.014L179.966 58.214L180.014 58.2613V64ZM184.837 64H183.889V59.1533C183.889 58.7008 183.831 58.3087 183.716 57.9772C183.605 57.6456 183.421 57.393 183.163 57.2194C182.905 57.0405 182.561 56.951 182.129 56.951C181.719 56.951 181.361 57.0352 181.056 57.2036C180.756 57.372 180.513 57.6035 180.329 57.8982C180.15 58.1929 180.027 58.5297 179.958 58.9086L179.745 58.1982H179.974C180.043 57.8193 180.177 57.4772 180.377 57.172C180.577 56.8615 180.85 56.6142 181.198 56.43C181.545 56.2406 181.963 56.1459 182.453 56.1459C183.163 56.1459 183.703 56.3274 184.071 56.6905C184.445 57.0536 184.681 57.593 184.781 58.3087C184.802 58.4192 184.816 58.535 184.821 58.656C184.831 58.7718 184.837 58.8902 184.837 59.0112V64Z" fill="white"/>
<line x1="10" y1="47.75" x2="191" y2="47.75" stroke="white" stroke-width="0.5"/>
</g>
<defs>
<filter id="filter0_d_9_5" x="-0.752278" y="17.9785" width="202.628" height="49.3122" filterUnits="userSpaceOnUse" color-interpolation-filters="sRGB">
<feFlood flood-opacity="0" result="BackgroundImageFix"/>
<feColorMatrix in="SourceAlpha" type="matrix" values="0 0 0 0 0 0 0 0 0 0 0 0 0 0 0 0 0 0 127 0" result="hardAlpha"/>
<feOffset dy="11.3333"/>
<feGaussianBlur stdDeviation="5.66667"/>
<feComposite in2="hardAlpha" operator="out"/>
<feColorMatrix type="matrix" values="0 0 0 0 0 0 0 0 0 0 0 0 0 0 0 0 0 0 0.25 0"/>
<feBlend mode="normal" in2="BackgroundImageFix" result="effect1_dropShadow_9_5"/>
<feBlend mode="normal" in="SourceGraphic" in2="effect1_dropShadow_9_5" result="shape"/>
</filter>
<clipPath id="clip0_9_5">
<rect width="213" height="81" fill="white"/>
</clipPath>
</defs>
</svg>
